<?xml version="1.0" encoding="iso-8859-1"?>
<!-- Generator: Adobe Illustrator 18.1.1, SVG Export Plug-In . SVG Version: 6.00 Build 0)  -->
<svg version="1.1" id="Capa_1" xmlns="http://www.w3.org/2000/svg" xmlns:xlink="http://www.w3.org/1999/xlink" x="0px" y="0px"
	 viewBox="0 0 23.241 23.241" style="enable-background:new 0 0 23.241 23.241;" xml:space="preserve">
<g>
	<g>
		<path style="fill:#090609;" d="M10.188,7.205C9.106,6.123,7.449,4.464,6.447,3.463C6.015,3.032,5.734,2.751,5.734,2.751
			s1.155-1.158,1.635-1.636c0.478-0.478-0.377-0.454-0.377-0.454L0.578,0.055c0,0-0.519-0.042-0.519,0.457
			c0,0.689,0.811,6.439,0.811,6.439S0.866,7.827,1.448,7.245C2.03,6.661,2.961,5.732,2.961,5.732S3.213,5.985,3.6,6.373
			c0.979,0.979,2.706,2.706,3.79,3.789C7.783,8.777,8.835,7.672,10.188,7.205z"/>
		<path style="fill:#090609;" d="M22.434,16.3c0,0,0.002-0.875-0.579-0.293c-0.583,0.584-1.513,1.512-1.513,1.512
			s-0.253-0.252-0.639-0.64c-1.028-1.028-2.891-2.892-3.957-3.956c-0.504,1.336-1.636,2.359-3.039,2.715
			c1.021,1.021,3.008,3.01,4.147,4.15c0.434,0.432,0.714,0.711,0.714,0.711s-1.157,1.162-1.636,1.638
			c-0.478,0.479,0.379,0.454,0.379,0.454l6.414,0.607c0,0,0.516,0.039,0.516-0.459C23.242,22.052,22.434,16.3,22.434,16.3z"/>
		<path style="fill:#090609;" d="M7.453,12.78c-1.051,1.052-2.945,2.944-4.044,4.046c-0.431,0.431-0.711,0.714-0.711,0.714
			s-1.159-1.159-1.638-1.638c-0.478-0.479-0.454,0.377-0.454,0.377l-0.605,6.416c0,0-0.042,0.518,0.458,0.518
			c0.689,0,6.44-0.809,6.44-0.809s0.874,0.003,0.292-0.582c-0.583-0.58-1.511-1.508-1.511-1.508s0.253-0.254,0.642-0.643
			c1.068-1.068,3.031-3.034,4.071-4.072C9.01,15.195,7.912,14.136,7.453,12.78z"/>
		<path style="fill:#090609;" d="M15.89,10.263c1.077-1.077,2.813-2.813,3.849-3.848c0.432-0.431,0.712-0.712,0.712-0.712
			s1.157,1.157,1.638,1.636c0.476,0.478,0.452-0.377,0.452-0.377l0.605-6.417c0,0,0.043-0.517-0.459-0.517
			c-0.688,0-6.438,0.809-6.438,0.809s-0.875-0.004-0.294,0.58c0.585,0.582,1.511,1.512,1.511,1.512s-0.251,0.253-0.639,0.64
			c-0.943,0.943-2.584,2.581-3.672,3.67C14.496,7.735,15.527,8.863,15.89,10.263z"/>
	</g>
</g>
<g>
</g>
<g>
</g>
<g>
</g>
<g>
</g>
<g>
</g>
<g>
</g>
<g>
</g>
<g>
</g>
<g>
</g>
<g>
</g>
<g>
</g>
<g>
</g>
<g>
</g>
<g>
</g>
<g>
</g>
</svg>
